<?xml version="1.0" encoding="UTF-8" standalone="no"?>
<!-- Created with Inkscape (http://www.inkscape.org/) -->

<svg
   width="210mm"
   height="297mm"
   viewBox="0 0 210 297"
   version="1.1"
   id="svg1"
   xml:space="preserve"
   xmlns:xlink="http://www.w3.org/1999/xlink"
   xmlns="http://www.w3.org/2000/svg"
   xmlns:svg="http://www.w3.org/2000/svg"><defs
     id="defs1"><linearGradient
       id="linearGradient28"><stop
         style="stop-color:#ffa90a;stop-opacity:1;"
         offset="0"
         id="stop28" /><stop
         style="stop-color:#008080;stop-opacity:0.76999998;"
         offset="1"
         id="stop29" /></linearGradient><linearGradient
       xlink:href="#linearGradient28"
       id="linearGradient29"
       x1="136.08479"
       y1="157.02527"
       x2="138.29776"
       y2="159.58356"
       gradientUnits="userSpaceOnUse"
       gradientTransform="matrix(4.1004241,0,0,4.1004241,-397.37691,-514.2952)" /></defs><g
     id="layer1"><path
       id="path1"
       style="display:inline;fill:#000000"
       d="m 77.460835,95.060844 c -11.945978,0 -12.429815,0.0059 -12.61525,0.156063 -0.237983,0.192708 -0.256741,0.617448 -0.03824,0.858862 0.153184,0.169287 0.238235,0.17055 12.439034,0.17415 l 12.284522,0.0036 2.201932,2.599841 2.20245,2.59984 13.540257,0.0217 13.54078,0.0212 0.20205,0.18965 c 0.11116,0.10444 0.72206,0.8285 1.35702,1.60869 l 1.15446,1.41852 2.50062,5.1e-4 2.50114,5.2e-4 0.14004,0.24598 c 0.16573,0.29133 0.4791,0.51216 0.8568,0.60306 0.51389,0.12365 1.21667,-0.11214 1.49293,-0.50074 0.41877,-0.58907 0.40543,-1.33626 -0.0357,-1.85932 -0.69864,-0.83029 -2.03472,-0.6201 -2.466,0.38809 l -0.1173,0.27544 h -2.28514 c -1.56894,0 -2.28461,-0.0286 -2.28461,-0.091 0,-0.0958 -2.52409,-3.14797 -2.81327,-3.40186 -0.15921,-0.14017 -0.9281,-0.14831 -13.56454,-0.14831 H 94.25981 l -2.188497,-2.582272 -2.18798,-2.582271 z m 11.665955,5.165056 -4.412134,0.003 c -4.675468,0.003 -4.566429,-0.006 -4.786788,0.40721 -0.126352,0.23716 0.0068,0.64691 0.253215,0.77877 0.09177,0.0491 1.910183,0.082 4.581632,0.0827 l 4.429704,0.001 1.439189,1.77302 1.439188,1.77302 11.429794,0.004 11.43031,0.004 0.14004,0.2465 c 0.16574,0.29133 0.4791,0.51164 0.8568,0.60254 v 10e-4 c 0.51388,0.12365 1.21666,-0.11215 1.49293,-0.50075 0.27372,-0.38537 0.37498,-0.86035 0.26768,-1.25883 -0.23814,-0.8844 -1.15529,-1.35203 -1.97817,-1.00821 -0.3466,0.14482 -0.78903,0.64348 -0.86093,0.971 l -0.0548,0.25166 -0.60926,-0.0289 c -0.33498,-0.0158 -5.35667,-0.0306 -11.15953,-0.0336 l -10.550774,-0.005 -1.674316,-2.03191 z m 17.80305,6.43475 c -7.51962,3e-4 -10.811182,0.0282 -11.04894,0.0935 -0.511498,0.14052 -1.02024,0.71158 -1.136882,1.27589 -0.06637,0.3212 -0.08674,5.3864 -0.0708,17.63768 l 0.02222,17.18758 0.203605,0.32763 c 0.125471,0.20184 0.336675,0.38773 0.550354,0.48473 0.332319,0.15134 0.807762,0.15716 11.421013,0.15916 12.36783,0.002 11.35448,0.0552 11.8184,-0.61909 0.47074,-0.68395 0.63475,-1.32641 0.63975,-2.51147 0.006,-1.21382 -0.18111,-1.99164 -0.6258,-2.60553 -0.48913,-0.67501 0.31932,-0.62091 -9.05474,-0.61391 l -8.3907,0.006 v -4.61626 -4.61573 l 5.31285,-0.001 c 5.0319,-5.3e-4 5.32542,-0.009 5.55108,-0.15761 1.26373,-0.83323 1.40178,-4.33999 0.21756,-5.52421 l -0.32918,-0.32866 h -5.37693 -5.37693 l 0.0217,-4.59301 0.0222,-4.59351 8.24653,-0.0191 8.24704,-0.0191 0.27595,-0.18914 c 0.15172,-0.10396 0.37576,-0.34306 0.49816,-0.53123 0.83539,-1.28425 0.79676,-3.83735 -0.0765,-4.9904 -0.5293,-0.69928 0.4783,-0.64323 -11.56105,-0.64285 z m -10.194212,1.71204 1.266072,0.0114 1.266073,0.0119 0.02119,17.12402 0.02119,17.1235 -0.402043,-0.0176 c -0.221305,-0.01 -0.78244,-0.0302 -1.246436,-0.0455 -0.648592,-0.0214 -0.909446,0.11638 -0.972418,0.0538 -0.417876,-0.37817 -0.225939,-0.90339 -0.333952,-18.50806 l -0.09354,-15.24648 0.236678,-0.25373 z m 49.358232,0.57361 c -0.45092,0 -0.82413,0.1864 -1.16221,0.58136 l -0.2992,0.34985 h -11.65459 -11.65459 v 0.59273 0.59273 h 11.7166 11.7166 l 0.13798,0.21032 c 0.17309,0.26416 0.48302,0.47025 0.83612,0.555 0.51389,0.12365 1.21667,-0.11214 1.49293,-0.50074 0.087,-0.12232 0.20363,-0.3762 0.25993,-0.56431 0.25833,-0.86377 -0.47078,-1.81694 -1.38957,-1.81694 z m -66.840886,0.93121 c -13.770023,0 -14.30593,0.006 -14.491622,0.15606 -0.130404,0.1056 -0.19327,0.24705 -0.19327,0.43667 0,0.18962 0.06287,0.33106 0.19327,0.43666 0.185692,0.15014 0.721599,0.15607 14.491622,0.15607 H 93.55236 v -0.59273 -0.59273 z m 59.564836,2.54765 c -0.13802,0.0138 -0.27798,0.0483 -0.41703,0.10645 -0.27096,0.11331 -0.82165,0.66273 -0.82165,0.82011 0,0.0518 -2.41151,0.0833 -6.58254,0.0853 l -6.58307,0.004 -1.08417,1.39319 -1.08468,1.39268 -9.9224,0.0212 -9.92187,0.0217 -0.0258,0.40205 -0.0258,0.40204 h 10.10895 10.10894 l 1.09296,-1.39578 1.09244,-1.39578 6.39237,-0.001 6.39237,-10e-4 0.1695,0.31058 c 0.61606,1.12933 2.31028,0.92068 2.65979,-0.32763 0.28391,-1.01403 -0.58207,-1.93512 -1.54823,-1.83813 z m -56.785677,3.46387 c -7.690141,0 -11.573948,0.0285 -11.681975,0.0863 -0.396136,0.21199 -0.399293,0.75762 -0.0078,0.971 v 5.2e-4 c 0.190308,0.10337 1.910366,0.12154 11.716597,0.12454 l 11.493356,0.003 v -0.59273 -0.59273 z m 4.741312,6.77323 c -4.458482,0 -6.83425,0.0298 -6.940661,0.0868 -0.396162,0.212 -0.399293,0.75711 -0.0078,0.97048 v 5.2e-4 c 0.188058,0.10218 1.282444,0.12154 6.975285,0.12454 l 6.752043,0.003 v -0.59273 -0.59273 z m 26.929625,0.33848 v 0.46457 0.46457 l 2.84375,0.0222 2.84427,0.0227 0.65888,1.14257 0.65939,1.14308 7.51427,0.0217 7.51375,0.0217 0.28732,0.25218 c 0.15805,0.13877 0.39163,0.27534 0.51883,0.30334 0.12721,0.028 0.26915,0.0641 0.31575,0.0801 0.13248,0.0456 0.56558,-0.049 0.86971,-0.19017 0.33069,-0.15351 0.55656,-0.45042 0.69557,-0.91519 0.25833,-0.86377 -0.47105,-1.81694 -1.3901,-1.81694 -0.45091,0 -0.82361,0.18663 -1.16169,0.58135 l -0.29972,0.34985 h -7.24297 -7.24297 l -0.69866,-0.97358 -0.69918,-0.9741 h -2.9931 z m -48.575849,5.24929 -0.222725,0.1757 c -0.147925,0.11636 -0.223242,0.25675 -0.223242,0.41703 0,0.16028 0.07531,0.30119 0.223242,0.41755 l 0.222725,0.17518 H 79.33979 93.55236 v -0.59273 -0.59273 H 79.33979 Z m 62.720199,5.67562 c -0.20544,-0.009 -0.41697,0.0257 -0.6227,0.11163 -0.30458,0.12726 -0.82165,0.67029 -0.82165,0.86247 0,0.10806 -0.98842,0.12403 -7.66207,0.12403 h -7.66258 v 0.4656 0.46561 l 7.68377,5.1e-4 7.68325,5.2e-4 0.14005,0.24598 c 0.16573,0.29134 0.47909,0.51241 0.85679,0.60306 0.51389,0.12366 1.21667,-0.11214 1.49293,-0.50074 0.27373,-0.38538 0.37499,-0.86037 0.26769,-1.25884 -0.17861,-0.6633 -0.73915,-1.09197 -1.35548,-1.11983 z m -62.175012,5.09633 c -0.09835,0.0222 -0.162707,0.0759 -0.264067,0.17725 -0.283517,0.28349 -0.283139,0.60047 0.0047,0.8661 l 0.224276,0.20774 H 79.595072 93.55236 v -0.59273 -0.59273 H 80.103051 c -7.39707,0 -13.680314,-0.0242 -13.962455,-0.0537 -0.237315,-0.0248 -0.369836,-0.0341 -0.468188,-0.0119 z m 14.579988,4.80695 -0.208256,0.20773 c -0.326512,0.32654 -0.255356,0.7226 0.173633,0.96945 0.09608,0.0549 0.329693,0.078 0.540535,0.0527 0.204408,-0.0245 3.16701,-0.0444 6.583061,-0.0444 h 6.210991 v -0.59273 -0.59272 h -6.65024 z m 30.905604,1.18545 1.70016,2.03192 1.70067,2.03192 h 8.369 8.36951 l 0.17105,0.2899 c 0.19702,0.33392 0.49433,0.55102 0.8847,0.64492 0.51389,0.12366 1.21666,-0.11214 1.49293,-0.50074 0.27373,-0.38538 0.37498,-0.86037 0.26769,-1.25884 -0.23815,-0.8844 -1.15529,-1.35152 -1.97818,-1.00769 -0.30458,0.12726 -0.82165,0.66953 -0.82165,0.86196 0,0.10824 -1.05399,0.12324 -8.23361,0.11524 l -8.23412,-0.009 -1.51205,-1.5999 c -1.46296,-1.54795 -1.52292,-1.59991 -1.84433,-1.59991 z m -20.483501,1.60714 -10.574548,5.2e-4 -0.131775,0.1881 c -0.169618,0.24216 -0.166016,0.28579 0.03772,0.48937 0.167419,0.16789 0.28554,0.16864 10.562146,0.17364 l 10.392648,0.005 2.37092,2.79362 2.3704,2.79363 9.31364,-0.009 c 5.12208,-0.006 9.80846,-0.007 10.41383,-0.004 l 1.10071,0.006 0.14004,0.24598 c 0.16573,0.29133 0.4791,0.51164 0.8568,0.60254 v -5.1e-4 c 0.51389,0.12365 1.21666,-0.11215 1.49293,-0.50075 0.27373,-0.38537 0.37498,-0.86036 0.26769,-1.25884 -0.2314,-0.8591 -1.12106,-1.33616 -1.9265,-1.03249 -0.34206,0.12896 -0.76969,0.5699 -0.8816,0.90899 -0.0948,0.28733 -0.10155,0.29044 -0.47904,0.23874 -0.21059,-0.0289 -4.79236,-0.0522 -10.18181,-0.0522 h -9.79888 l -2.38539,-2.79415 -2.38538,-2.79414 z m 8.090462,4.31912 c -0.450889,0 -0.82361,0.1869 -1.161686,0.58187 l -0.299206,0.34985 H 84.136914 70.969242 l -0.222726,0.17519 c -0.264347,0.20796 -0.287149,0.48935 -0.06149,0.76791 l 0.161747,0.19998 13.271024,0.0217 13.270508,0.0222 0.262516,0.29972 c 0.144261,0.16496 0.414214,0.35478 0.600481,0.42168 0.371922,0.13362 0.775417,0.098 1.208192,-0.10593 0.33121,-0.15605 0.556836,-0.45289 0.695566,-0.91674 0.25833,-0.86377 -0.471056,-1.81746 -1.390095,-1.81746 z m -8.66252,6.60941 c -0.589908,0.022 -1.14515,0.48083 -1.14515,1.19838 0,0.37891 -0.04808,0.39392 -0.321944,0.10077 -0.389224,-0.41662 -0.566793,-0.45734 -1.982825,-0.45734 -1.288953,0 -1.325193,0.005 -1.528072,0.20774 -0.252071,0.2521 -0.262138,0.41527 -0.03876,0.63872 0.15174,0.15174 0.282612,0.1695 1.256254,0.1695 0.597581,0 1.109672,0.0234 1.138432,0.0522 0.02876,0.0288 -0.383608,0.39243 -0.91674,0.80822 -0.959904,0.74862 -1.188995,1.01514 -1.224215,1.42524 -0.07079,0.82429 0.126997,1.10127 1.312065,1.83399 0.439761,0.27201 0.801035,0.51772 0.802535,0.54622 0.0015,0.0285 -0.292815,0.17487 -0.653707,0.32557 -0.360892,0.1507 -0.722595,0.33367 -0.804085,0.40617 -0.210524,0.18736 -0.189627,0.57517 0.03979,0.73588 0.262086,0.18359 0.384397,0.16799 1.049031,-0.13075 1.387524,-0.62365 1.613244,-0.75064 1.711524,-0.96635 0.221295,-0.48549 0.139629,-0.69684 -0.540019,-1.39526 l -0.639754,-0.65681 0.447517,-0.3917 c 0.246139,-0.21531 0.472009,-0.39171 0.501779,-0.39171 0.02977,0 0.08006,0.16177 0.111621,0.35915 0.03156,0.19739 0.138275,0.44505 0.237195,0.55035 0.166757,0.17755 0.251529,0.19121 1.16427,0.19121 1.075763,0 1.187524,-0.0428 1.187524,-0.45476 0,-0.43569 -0.19913,-0.5612 -0.889351,-0.5612 h -0.608749 l -0.140043,-0.84284 c -0.07699,-0.46357 -0.140043,-0.8781 -0.140043,-0.9214 0,-0.045 0.235311,-0.0598 0.548804,-0.0346 l 0.548803,0.0439 0.340031,-0.34003 c 0.321307,-0.32131 0.340548,-0.36853 0.340548,-0.84698 0,-0.38548 -0.04218,-0.56016 -0.176733,-0.73122 -0.266956,-0.33938 -0.633578,-0.48349 -0.987537,-0.47026 z m 17.680059,0.33383 c -0.1074,0 -0.46847,0.89896 -1.55495,3.87315 -0.778,2.13042 -1.41509,3.94048 -1.4149,4.02198 2.4e-4,0.0978 0.0663,0.14779 0.19379,0.14779 0.16897,0 0.23164,-0.10909 0.49713,-0.86765 l 0.30386,-0.86764 h 1.59576 1.59629 l 0.3576,0.84646 0.35812,0.84646 0.89297,0.0243 c 0.84222,0.0226 0.89348,0.0144 0.89348,-0.14366 0,-0.0922 -0.80516,-1.90331 -1.78955,-4.02456 -1.30282,-2.80718 -1.82778,-3.85661 -1.9296,-3.85661 z m -34.381365,0.005 c -0.688966,0.002 -1.382409,0.16324 -1.982825,0.48421 -0.563618,0.30132 -1.329894,1.06477 -1.595768,1.58956 -1.257815,2.4839 -0.0041,5.38255 2.601908,6.01566 v 5.1e-4 c 0.931733,0.22637 2.093853,0.0812 2.947624,-0.36793 0.243583,-0.12812 0.471509,-0.24568 0.506429,-0.26148 0.03492,-0.0158 0.06356,0.10469 0.06356,0.26768 0,0.29214 0.110248,0.40745 0.317293,0.33125 0.08063,-0.0296 0.105937,-0.52098 0.105937,-2.06189 v -2.02314 h -1.100708 -1.100708 v 0.21188 0.21135 h 0.891418 0.891419 l -0.02377,1.19838 -0.02325,1.19838 -0.403076,0.2775 c -0.221694,0.1527 -0.62212,0.36226 -0.889351,0.4656 -0.859033,0.33216 -2.249685,0.22492 -2.962093,-0.22841 l -0.190686,-0.12144 v -3.12022 -3.12022 l 0.402042,-0.17105 c 1.189848,-0.50715 2.154818,-0.48275 3.308842,0.0858 0.425369,0.20939 0.550665,0.2407 0.606165,0.1509 0.112009,-0.18123 0.018,-0.30423 -0.412378,-0.53847 -0.584187,-0.31797 -1.269054,-0.47614 -1.95802,-0.47439 z m 16.580383,0.001 c 0.245609,-0.0415 0.510592,0.0496 0.743107,0.28216 0.336431,0.33643 0.37034,0.63379 0.119373,1.04541 -0.09227,0.15134 -0.178056,0.27492 -0.190686,0.27492 -0.01263,0 -0.137077,0.031 -0.276469,0.0687 -0.344365,0.0932 -0.549951,0.0393 -0.820622,-0.21549 -0.297258,-0.27986 -0.368926,-0.61689 -0.200504,-0.94258 0.154009,-0.29787 0.380192,-0.47163 0.625801,-0.51315 z m 25.165902,0.006 c -0.24319,0.0162 -0.48647,0.0551 -0.72812,0.11679 -1.97788,0.50495 -3.1688,2.00008 -3.1688,3.97753 0,1.97833 1.2151,3.49598 3.18069,3.97133 0.99348,0.24039 1.98284,0.11773 2.86494,-0.35501 0.29079,-0.15584 0.43749,-0.29096 0.45579,-0.42013 0.0357,-0.25118 -0.12017,-0.24598 -0.60152,0.0238 -0.85944,0.48035 -2.10769,0.56026 -3.07888,0.19689 l -0.45475,-0.17002 0.0217,-3.26337 0.0222,-3.26336 0.41755,-0.16382 c 0.90988,-0.35736 2.12986,-0.28007 3.0055,0.19069 0.55574,0.29874 0.68316,0.30859 0.68316,0.0496 0,-0.15425 -0.1,-0.24864 -0.45527,-0.4284 -0.70316,-0.35576 -1.43462,-0.51116 -2.16421,-0.4625 z m -22.780001,0.0579 v 3.98632 3.98684 h 0.931209 0.93121 v -1.01596 -1.01596 h 0.247013 c 0.135891,0 0.297648,-0.018 0.359668,-0.0403 0.07102,-0.0256 0.379277,0.34978 0.832507,1.01389 0.558713,0.81862 0.762644,1.05426 0.910539,1.05626 0.319527,0.004 0.227225,-0.24643 -0.444934,-1.21129 -0.34925,-0.50132 -0.634587,-0.94154 -0.634587,-0.97824 0,-0.0367 0.09675,-0.11094 0.214974,-0.16484 0.420841,-0.19175 1.029046,-0.85471 1.276408,-1.39113 0.20744,-0.44984 0.243578,-0.63415 0.243913,-1.24747 3.34e-4,-0.61139 -0.03574,-0.79626 -0.237195,-1.22783 -0.308209,-0.66027 -0.80144,-1.15601 -1.445906,-1.45315 -0.486316,-0.22416 -0.599517,-0.2408 -1.851567,-0.2682 z m -36.83031,0.0145 v 3.97961 3.97908 h 2.497522 2.498039 v -0.21136 -0.21187 h -1.566313 -1.566313 v -1.26762 -1.26762 l 1.121379,-0.0233 c 1.057488,-0.0223 1.121895,-0.0336 1.121895,-0.19327 0,-0.15966 -0.06438,-0.17045 -1.121895,-0.19275 l -1.121379,-0.0238 v -2.07171 -2.07223 h 1.566313 1.566313 v -0.21135 -0.21188 h -2.498039 z m 6.434749,0 v 3.98787 3.98787 l 1.460376,-0.0351 c 1.674357,-0.0402 2.082614,-0.14882 2.901115,-0.77152 0.96235,-0.73213 1.477619,-1.71255 1.544609,-2.93884 0.06951,-1.27229 -0.316772,-2.27982 -1.191142,-3.10679 -0.907309,-0.85812 -1.734817,-1.12345 -3.505212,-1.12345 z m 16.002124,0 v 3.97961 3.97908 h 2.497522 c 2.163653,0 2.497522,-0.0171 2.497522,-0.12712 0,-0.0786 0.08004,-0.12661 0.20929,-0.12661 0.162155,0 0.446557,-0.26855 1.272274,-1.19889 0.585039,-0.6592 1.050572,-1.23771 1.034562,-1.28571 -0.07974,-0.23923 -0.299518,-0.0587 -1.219564,0.99994 -0.739598,0.85103 -1.044198,1.14446 -1.169438,1.12706 -0.378563,-0.0525 -0.212585,-0.35831 0.930176,-1.71669 0.626789,-0.74507 1.140749,-1.39839 1.142049,-1.45159 0.0086,-0.35108 -0.331398,-0.0487 -1.42782,1.26969 -1.157746,1.39214 -1.205953,1.46495 -1.166853,1.7694 l 0.04082,0.31729 h -1.389063 -1.389062 v -1.26762 -1.26762 l 1.121895,-0.0233 c 1.057488,-0.0223 1.121896,-0.0336 1.121896,-0.19327 0,-0.15966 -0.06438,-0.17045 -1.121896,-0.19275 l -1.121895,-0.0238 v -2.07171 -2.07171 h 1.566313 1.566312 v -0.21187 -0.21188 H 80.4715 Z m 20.82767,0 v 3.97961 3.97908 h 2.498038 2.49752 v -0.21136 -0.21187 h -1.56631 -1.56631 v -1.26762 -1.26762 l 1.12189,-0.0233 c 1.05753,-0.0223 1.1219,-0.0336 1.1219,-0.19327 0,-0.15966 -0.0644,-0.17045 -1.1219,-0.19275 l -1.12189,-0.0238 v -2.07171 -2.07171 h 1.56631 1.56631 v -0.21187 -0.21188 h -2.49752 z m 20.743438,0.0847 v 3.93723 3.93671 h 0.93121 0.93172 v -1.48156 -1.48157 h 1.77767 1.77819 v 1.48157 1.48156 h 0.21187 0.21136 v -3.93671 -3.93723 h -0.21136 -0.21187 v 2.24379 2.24379 h -1.77819 -1.77767 v -2.24379 -2.24379 h -0.93172 z m -25.315252,0.31781 0.359668,0.0558 c 0.859143,0.1331 1.670866,0.75543 2.038635,1.56373 0.511003,1.12316 -0.05732,2.60019 -1.229382,3.19412 -0.224434,0.11373 -0.579321,0.2302 -0.788583,0.2589 l -0.380338,0.0522 v -2.56264 z m -30.10514,0.0103 c 0.113791,9e-5 0.271474,0.0594 0.48886,0.1049 1.453686,0.30415 2.695882,1.68023 2.831868,3.13624 0.09369,1.00327 -0.21412,1.88648 -0.931726,2.67168 -0.513303,0.56164 -0.885789,0.80735 -1.569413,1.03766 -0.281596,0.0949 -0.646352,0.1726 -0.810804,0.1726 h -0.299206 v -3.55586 c 0,-3.03462 -0.05095,-3.56747 0.290421,-3.56722 z m 14.90245,0.29559 c 0.07672,0.006 0.132122,0.0462 0.151412,0.1204 0.02093,0.0804 0.03459,1.55613 0.03049,3.27887 l -0.0078,3.13263 -0.232544,0.0269 -0.233061,0.0279 -0.0026,-1.04283 c -0.0015,-0.57353 -0.02478,-2.01874 -0.05168,-3.21169 -0.04008,-1.7777 -0.02826,-2.18283 0.06615,-2.24173 0.104627,-0.0653 0.202845,-0.0949 0.279569,-0.0894 z m -22.346956,0.0124 0.02222,3.28042 0.02222,3.28145 h -0.21549 c -0.118425,0 -0.233399,-0.048 -0.255799,-0.10645 -0.02241,-0.0584 -0.03082,-1.53489 -0.0186,-3.28042 l 0.02222,-3.17345 0.211356,-5.2e-4 z m 31.270442,0.0377 0.494027,0.41135 c 0.271573,0.22635 0.535248,0.46533 0.586528,0.53123 0.05128,0.0659 0.157641,0.53887 0.236161,1.0511 0.07852,0.51223 0.160954,1.01583 0.182934,1.1188 0.03702,0.17347 0.09418,0.18865 0.779798,0.21135 0.590481,0.0195 0.740006,0.0501 0.740006,0.15141 0,0.1051 -0.158863,0.12713 -0.923974,0.12713 -1.057574,0 -0.999197,0.048 -1.107943,-0.91519 -0.03053,-0.27042 -0.08875,-0.47991 -0.129191,-0.46561 -0.167933,0.0594 -1.60662,1.36106 -1.60662,1.45366 0,0.0554 0.304945,0.40326 0.677478,0.7736 0.506975,0.50403 0.677478,0.73012 0.677478,0.89813 0,0.29554 -0.05625,0.33495 -1.186491,0.83458 -1.023487,0.45242 -1.040357,0.4577 -1.128097,0.37 -0.157511,-0.15751 0.01739,-0.29434 0.79065,-0.62063 1.157731,-0.48854 1.152312,-0.54633 -0.126608,-1.35806 -1.05862,-0.67192 -1.246077,-0.87507 -1.258837,-1.36167 -0.01161,-0.44293 0.172649,-0.65954 1.351338,-1.58699 0.554139,-0.43602 1.018855,-0.83938 1.032495,-0.89658 0.06205,-0.2603 -0.257384,-0.34249 -1.498099,-0.38499 -1.023579,-0.0351 -1.236101,-0.0638 -1.236101,-0.16898 0,-0.10648 0.214183,-0.13088 1.326534,-0.15038 z m 5.178496,0.004 h 0.254248 0.253731 v 3.30212 3.30161 h -0.197404 c -0.108656,0 -0.223208,-0.0253 -0.254248,-0.0563 -0.03104,-0.0311 -0.05633,-1.51707 -0.05633,-3.30212 z m -30.479794,0.0848 h 0.253732 0.254248 v 3.30212 c 0,3.09084 -0.0096,3.30089 -0.148312,3.29489 -0.367608,-0.0166 -0.359668,0.0558 -0.359668,-3.3445 z m 36.829794,0 h 0.25425 0.25373 v 3.30212 3.30161 H 99.7897 c -0.10841,0 -0.22324,-0.0253 -0.25424,-0.0563 -0.031,-0.031 -0.0563,-1.51707 -0.0563,-3.30212 z m 20.78581,0.0424 h 0.25373 0.25425 l 0.0222,3.28042 0.0222,3.28094 h -0.25373 c -0.19258,0 -0.26452,-0.0454 -0.29972,-0.19017 -0.0258,-0.10477 -0.0357,-1.58128 -0.0227,-3.28094 z m -12.16928,0.56844 c 0.0444,0.001 0.0827,0.0123 0.10645,0.0367 0.0385,0.0396 0.41807,0.89144 0.84336,1.89239 0.42529,1.00118 0.98357,2.31398 1.24075,2.91714 0.43738,1.02575 0.45782,1.10337 0.3173,1.20613 -0.0826,0.0605 -0.17314,0.11007 -0.20154,0.11007 -0.0709,0 -0.25477,-0.18994 -0.25477,-0.26304 0,-0.0328 -0.53353,-1.30946 -1.18546,-2.83651 -0.65168,-1.52729 -1.18545,-2.82367 -1.18545,-2.88097 0,-0.0974 0.18628,-0.18522 0.31936,-0.1819 z m 23.88381,0.18656 c 0.008,0.0889 0.0151,0.17781 0.0233,0.26665 0.008,0.0841 0.0142,0.16845 0.0217,0.25269 l 0.003,-0.42736 c -0.0173,-0.0302 -0.0313,-0.0616 -0.0481,-0.092 z m -60.981806,0.0491 h 0.203088 v 2.32854 2.32802 h -0.183968 c -0.294135,0 -0.852657,-0.65209 -1.022676,-1.19372 -0.227677,-0.72553 -0.201418,-1.81148 0.05943,-2.45308 0.23334,-0.57431 0.640373,-1.00976 0.944128,-1.00976 z m 41.994856,0.0847 h 0.20257 v 2.32854 2.32802 h -0.18397 c -0.29416,0 -0.85263,-0.65186 -1.02268,-1.19373 -0.2277,-0.72529 -0.20065,-1.81125 0.0594,-2.45308 0.23337,-0.57408 0.6409,-1.00975 0.94465,-1.00975 z m -5.75779,0.50798 c 0.0397,-0.10698 0.73963,1.43352 1.39423,3.06906 l 0.16123,0.40256 h -1.39578 c -0.76767,0 -1.39578,-0.0158 -1.39578,-0.0346 0,-0.0261 0.94173,-2.64475 1.2361,-3.437 z m 35.26865,5.641 c -0.0284,4.2e-4 -0.0568,0.002 -0.0853,0.006 -0.0151,0.002 -0.0295,0.007 -0.0444,0.01 0.0496,-0.002 0.096,-0.005 0.14314,-0.008 -0.004,-0.003 -0.009,-0.005 -0.0134,-0.008 z" /><text
       xml:space="preserve"
       style="font-style:normal;font-variant:normal;font-weight:normal;font-stretch:normal;font-size:13.0189px;font-family:'Agency FB';-inkscape-font-specification:'Agency FB';display:inline;fill:url(#linearGradient29);fill-opacity:1;stroke-width:1.0849"
       x="153.81522"
       y="141.22838"
       id="text28"
       transform="scale(0.85135328,1.1746005)"><tspan
         id="tspan28"
         style="font-style:normal;font-variant:normal;font-weight:normal;font-stretch:normal;font-family:'Agency FB';-inkscape-font-specification:'Agency FB';fill:url(#linearGradient29);fill-opacity:1;stroke-width:1.0849"
         x="153.81522"
         y="141.22838">TECH  </tspan></text><rect
       style="fill:#c0c0c0;fill-opacity:1;stroke-width:0.232986"
       id="rect29"
       width="3.1304061"
       height="34.269043"
       x="96.735123"
       y="108.38195" /></g></svg>
